<svg width="397" height="564" viewBox="0 0 397 564" fill="none" xmlns="http://www.w3.org/2000/svg">
<path d="M91.7196 302.585C118.026 302.585 114.811 278.805 114.811 278.805H146.67C146.67 298.758 138.122 325.568 95.2271 321.718C75.9112 319.985 67.5197 306.656 67.8454 292.132C67.9082 289.33 70.3424 287.279 73.1455 287.279C74.7266 287.279 76.0634 288.482 76.4688 290.01C77.6363 294.411 81.2182 302.585 91.7196 302.585Z" fill="url(#paint0_linear_5867_78)"/>
<path d="M98.4035 190.99C97.4114 146.134 134.466 111.267 179.333 111.267V111.267C220.548 111.267 255.914 140.778 266.977 180.48C277.68 218.892 293.935 267.998 316.661 313.618C338.391 357.24 312.753 427.823 264.395 433.875L225.559 438.736C209.756 440.713 193.711 438.545 179 432.444L166.827 427.395C156.841 423.253 147.705 417.053 141.891 407.939C108.511 355.616 99.9215 259.62 98.4035 190.99Z" fill="url(#paint1_linear_5867_78)"/>
<g opacity="0.5" filter="url(#filter0_f_5867_78)">
<ellipse cx="255.392" cy="474.786" rx="55.7807" ry="4.05678" fill="url(#paint2_linear_5867_78)"/>
</g>
<path d="M175.259 320.945C201.565 320.945 198.351 297.166 198.351 297.166H230.21C230.21 317.119 221.662 343.929 178.767 340.079C159.451 338.345 151.06 325.016 151.385 310.492C151.448 307.69 153.882 305.639 156.685 305.639C158.267 305.639 159.603 306.842 160.009 308.37C161.176 312.772 164.758 320.945 175.259 320.945Z" fill="url(#paint3_linear_5867_78)"/>
<g filter="url(#filter1_d_5867_78)">
<g filter="url(#filter2_ii_5867_78)">
<path d="M109.217 192.394C108.047 173.777 116.068 155.768 130.688 144.184V144.184C149.651 129.157 175.368 125.845 197.52 135.577L199.561 136.473C224.066 147.239 238.516 172.895 235.02 199.432L229.809 238.981C225.924 268.468 200.788 290.51 171.046 290.51V290.51C139.755 290.51 113.854 266.186 111.891 234.956L109.217 192.394Z" fill="url(#paint4_linear_5867_78)"/>
</g>
<g filter="url(#filter4_dd_5867_78)">
<rect x="146.365" y="243.921" width="9.18018" height="22.9504" rx="4.59009" fill="url(#paint6_linear_5867_78)"/>
</g>
</g>
<g filter="url(#filter5_dd_5867_78)">
<ellipse cx="128.464" cy="201.921" rx="14.2293" ry="13.9998" fill="url(#paint7_linear_5867_78)"/>
</g>
<ellipse cx="128.464" cy="222.577" rx="6.42613" ry="3.44257" fill="url(#paint8_linear_5867_78)"/>
<path d="M125.228 166.284C126.153 162.035 129.914 159.004 134.262 159.004V159.004C134.863 159.004 135.35 159.491 135.35 160.092V178.818C135.35 182.325 132.507 185.168 129 185.168V185.168C124.949 185.168 121.934 181.426 122.795 177.468L125.228 166.284Z" fill="url(#paint9_linear_5867_78)"/>
<path d="M124.674 250.503C125.438 255.177 129.476 258.609 134.213 258.609V258.609C134.841 258.609 135.35 258.1 135.35 257.472V235.31C135.35 231.7 132.423 228.774 128.813 228.774V228.774C124.782 228.774 121.711 232.387 122.362 236.365L124.674 250.503Z" fill="url(#paint10_linear_5867_78)"/>
<g filter="url(#filter6_dd_5867_78)">
<circle r="15.346" transform="matrix(-1 -8.74228e-08 -8.74228e-08 1 183.933 202.233)" fill="url(#paint11_linear_5867_78)"/>
</g>
<ellipse rx="7.0153" ry="3.72688" transform="matrix(-1 -8.74228e-08 -8.74228e-08 1 183.933 224.813)" fill="url(#paint12_linear_5867_78)"/>
<path d="M187.379 163.613C186.392 159.029 182.339 155.756 177.65 155.756V155.756C177.003 155.756 176.479 156.28 176.479 156.927L176.479 177.4C176.479 181.186 179.549 184.256 183.335 184.256V184.256C187.703 184.256 190.957 180.226 190.037 175.956L187.379 163.613Z" fill="url(#paint13_linear_5867_78)"/>
<path d="M187.982 254.871C187.164 259.913 182.811 263.617 177.704 263.617V263.617C177.027 263.617 176.479 263.068 176.479 262.392L176.479 238.226C176.479 234.329 179.638 231.171 183.534 231.171V231.171C187.881 231.171 191.194 235.064 190.498 239.355L187.982 254.871Z" fill="url(#paint14_linear_5867_78)"/>
<defs>
<filter id="filter0_f_5867_78" x="114.606" y="385.725" width="281.571" height="178.124" filterUnits="userSpaceOnUse" color-interpolation-filters="sRGB">
<feFlood flood-opacity="0" result="BackgroundImageFix"/>
<feBlend mode="normal" in="SourceGraphic" in2="BackgroundImageFix" result="shape"/>
<feGaussianBlur stdDeviation="42.5025" result="effect1_foregroundBlur_5867_78"/>
</filter>
<filter id="filter1_d_5867_78" x="0.71862" y="0.422321" width="343.206" height="377.222" filterUnits="userSpaceOnUse" color-interpolation-filters="sRGB">
<feFlood flood-opacity="0" result="BackgroundImageFix"/>
<feColorMatrix in="SourceAlpha" type="matrix" values="0 0 0 0 0 0 0 0 0 0 0 0 0 0 0 0 0 0 127 0" result="hardAlpha"/>
<feOffset dy="-21.2522"/>
<feGaussianBlur stdDeviation="54.193"/>
<feColorMatrix type="matrix" values="0 0 0 0 1 0 0 0 0 0.820833 0 0 0 0 0.992833 0 0 0 0.35 0"/>
<feBlend mode="normal" in2="BackgroundImageFix" result="effect1_dropShadow_5867_78"/>
<feBlend mode="normal" in="SourceGraphic" in2="effect1_dropShadow_5867_78" result="shape"/>
</filter>
<filter id="filter2_ii_5867_78" x="62.3499" y="120.497" width="173.189" height="184.889" filterUnits="userSpaceOnUse" color-interpolation-filters="sRGB">
<feFlood flood-opacity="0" result="BackgroundImageFix"/>
<feBlend mode="normal" in="SourceGraphic" in2="BackgroundImageFix" result="shape"/>
<feColorMatrix in="SourceAlpha" type="matrix" values="0 0 0 0 0 0 0 0 0 0 0 0 0 0 0 0 0 0 127 0" result="hardAlpha"/>
<feOffset dy="-9.56348"/>
<feGaussianBlur stdDeviation="9.56348"/>
<feComposite in2="hardAlpha" operator="arithmetic" k2="-1" k3="1"/>
<feColorMatrix type="matrix" values="0 0 0 0 0.379167 0 0 0 0 0.102691 0 0 0 0 0.351519 0 0 0 0.31 0"/>
<feBlend mode="normal" in2="shape" result="effect1_innerShadow_5867_78"/>
<feColorMatrix in="SourceAlpha" type="matrix" values="0 0 0 0 0 0 0 0 0 0 0 0 0 0 0 0 0 0 127 0" result="hardAlpha"/>
<feOffset dx="-46.7548" dy="14.8765"/>
<feGaussianBlur stdDeviation="42.5043"/>
<feComposite in2="hardAlpha" operator="arithmetic" k2="-1" k3="1"/>
<feColorMatrix type="matrix" values="0 0 0 0 0.291279 0 0 0 0 0.061684 0 0 0 0 0.779167 0 0 0 0.28 0"/>
<feBlend mode="normal" in2="effect1_innerShadow_5867_78" result="effect2_innerShadow_5867_78"/>
</filter>
<filter id="filter3_f_5867_78" x="30.8512" y="138.773" width="249.322" height="213.54" filterUnits="userSpaceOnUse" color-interpolation-filters="sRGB">
<feFlood flood-opacity="0" result="BackgroundImageFix"/>
<feBlend mode="normal" in="SourceGraphic" in2="BackgroundImageFix" result="shape"/>
<feGaussianBlur stdDeviation="40.8848" result="effect1_foregroundBlur_5867_78"/>
</filter>
<filter id="filter4_dd_5867_78" x="134.677" y="235.032" width="32.5576" height="49.9036" filterUnits="userSpaceOnUse" color-interpolation-filters="sRGB">
<feFlood flood-opacity="0" result="BackgroundImageFix"/>
<feColorMatrix in="SourceAlpha" type="matrix" values="0 0 0 0 0 0 0 0 0 0 0 0 0 0 0 0 0 0 127 0" result="hardAlpha"/>
<feOffset dy="6.37565"/>
<feGaussianBlur stdDeviation="5.84435"/>
<feColorMatrix type="matrix" values="0 0 0 0 0.599108 0 0 0 0 0.279792 0 0 0 0 0.85 0 0 0 0.35 0"/>
<feBlend mode="normal" in2="BackgroundImageFix" result="effect1_dropShadow_5867_78"/>
<feColorMatrix in="SourceAlpha" type="matrix" values="0 0 0 0 0 0 0 0 0 0 0 0 0 0 0 0 0 0 127 0" result="hardAlpha"/>
<feOffset dx="-2.12522" dy="-1.06261"/>
<feGaussianBlur stdDeviation="3.91311"/>
<feColorMatrix type="matrix" values="0 0 0 0 1 0 0 0 0 1 0 0 0 0 1 0 0 0 0.2 0"/>
<feBlend mode="normal" in2="effect1_dropShadow_5867_78" result="effect2_dropShadow_5867_78"/>
<feBlend mode="normal" in="SourceGraphic" in2="effect2_dropShadow_5867_78" result="shape"/>
</filter>
<filter id="filter5_dd_5867_78" x="101.817" y="181.641" width="46.0947" height="48.4904" filterUnits="userSpaceOnUse" color-interpolation-filters="sRGB">
<feFlood flood-opacity="0" result="BackgroundImageFix"/>
<feColorMatrix in="SourceAlpha" type="matrix" values="0 0 0 0 0 0 0 0 0 0 0 0 0 0 0 0 0 0 127 0" result="hardAlpha"/>
<feOffset dx="-5.31304" dy="7.1052"/>
<feGaussianBlur stdDeviation="3.5526"/>
<feColorMatrix type="matrix" values="0 0 0 0 0.603458 0 0 0 0 0.390104 0 0 0 0 0.875 0 0 0 0.32 0"/>
<feBlend mode="normal" in2="BackgroundImageFix" result="effect1_dropShadow_5867_78"/>
<feColorMatrix in="SourceAlpha" type="matrix" values="0 0 0 0 0 0 0 0 0 0 0 0 0 0 0 0 0 0 127 0" result="hardAlpha"/>
<feOffset dx="3.18783" dy="-4.25043"/>
<feGaussianBlur stdDeviation="1.01503"/>
<feColorMatrix type="matrix" values="0 0 0 0 1 0 0 0 0 1 0 0 0 0 1 0 0 0 0.4 0"/>
<feBlend mode="normal" in2="effect1_dropShadow_5867_78" result="effect2_dropShadow_5867_78"/>
<feBlend mode="normal" in="SourceGraphic" in2="effect2_dropShadow_5867_78" result="shape"/>
</filter>
<filter id="filter6_dd_5867_78" x="157.231" y="182.826" width="46.2029" height="49.2955" filterUnits="userSpaceOnUse" color-interpolation-filters="sRGB">
<feFlood flood-opacity="0" result="BackgroundImageFix"/>
<feColorMatrix in="SourceAlpha" type="matrix" values="0 0 0 0 0 0 0 0 0 0 0 0 0 0 0 0 0 0 127 0" result="hardAlpha"/>
<feOffset dx="-4.25043" dy="7.43826"/>
<feGaussianBlur stdDeviation="3.5526"/>
<feColorMatrix type="matrix" values="0 0 0 0 0.603458 0 0 0 0 0.390104 0 0 0 0 0.875 0 0 0 0.32 0"/>
<feBlend mode="normal" in2="BackgroundImageFix" result="effect1_dropShadow_5867_78"/>
<feColorMatrix in="SourceAlpha" type="matrix" values="0 0 0 0 0 0 0 0 0 0 0 0 0 0 0 0 0 0 127 0" result="hardAlpha"/>
<feOffset dx="2.12522" dy="-2.03006"/>
<feGaussianBlur stdDeviation="1.01503"/>
<feColorMatrix type="matrix" values="0 0 0 0 1 0 0 0 0 1 0 0 0 0 1 0 0 0 0.4 0"/>
<feBlend mode="normal" in2="effect1_dropShadow_5867_78" result="effect2_dropShadow_5867_78"/>
<feBlend mode="normal" in="SourceGraphic" in2="effect2_dropShadow_5867_78" result="shape"/>
</filter>
<linearGradient id="paint0_linear_5867_78" x1="89.5055" y1="294.641" x2="113.31" y2="294.641" gradientUnits="userSpaceOnUse">
<stop stop-color="#0D0038" stop-opacity="0.37"/>
<stop offset="1" stop-opacity="0"/>
</linearGradient>
<linearGradient id="paint1_linear_5867_78" x1="198.463" y1="135.594" x2="191.618" y2="489.176" gradientUnits="userSpaceOnUse">
<stop stop-color="#0D0038"/>
<stop offset="1" stop-opacity="0.03"/>
</linearGradient>
<linearGradient id="paint2_linear_5867_78" x1="255.392" y1="470.73" x2="255.392" y2="478.843" gradientUnits="userSpaceOnUse">
<stop/>
<stop offset="1" stop-color="#151433" stop-opacity="0.87"/>
<stop offset="1" stop-color="#251F27" stop-opacity="0.87"/>
</linearGradient>
<linearGradient id="paint3_linear_5867_78" x1="158.688" y1="318.622" x2="205.64" y2="296.964" gradientUnits="userSpaceOnUse">
<stop stop-color="#0D0038" stop-opacity="0.37"/>
<stop offset="0.626611" stop-color="#050015" stop-opacity="0.08"/>
<stop offset="1" stop-opacity="0"/>
</linearGradient>
<linearGradient id="paint4_linear_5867_78" x1="174.135" y1="119.759" x2="174.135" y2="290.51" gradientUnits="userSpaceOnUse">
<stop stop-color="white"/>
<stop offset="0.0698237" stop-color="#F4F0F4" stop-opacity="0.990923"/>
<stop offset="0.942282" stop-color="#C7C5FE" stop-opacity="0.77"/>
<stop offset="1" stop-color="#C4C2FF" stop-opacity="0.81"/>
</linearGradient>
<linearGradient id="paint5_linear_5867_78" x1="155.546" y1="220.052" x2="155.546" y2="270.543" gradientUnits="userSpaceOnUse">
<stop stop-color="#5B225C"/>
<stop offset="1" stop-color="#151433" stop-opacity="0.87"/>
<stop offset="1" stop-color="#59266B" stop-opacity="0.87"/>
</linearGradient>
<linearGradient id="paint6_linear_5867_78" x1="150.955" y1="245.567" x2="150.978" y2="268.905" gradientUnits="userSpaceOnUse">
<stop stop-color="#261953"/>
<stop offset="1" stop-color="#11082F"/>
</linearGradient>
<linearGradient id="paint7_linear_5867_78" x1="128.464" y1="189.93" x2="128.475" y2="218.403" gradientUnits="userSpaceOnUse">
<stop stop-color="#2E1E65"/>
<stop offset="1" stop-color="#11082F"/>
</linearGradient>
<linearGradient id="paint8_linear_5867_78" x1="139.509" y1="219.134" x2="116.913" y2="227.69" gradientUnits="userSpaceOnUse">
<stop stop-color="#FE4A23" stop-opacity="0.35"/>
<stop offset="1" stop-color="#FA43B0" stop-opacity="0"/>
</linearGradient>
<linearGradient id="paint9_linear_5867_78" x1="128.235" y1="159.004" x2="128.046" y2="190.117" gradientUnits="userSpaceOnUse">
<stop stop-color="#FE4A23" stop-opacity="0.42"/>
<stop offset="1" stop-color="#FA43B0" stop-opacity="0.38"/>
</linearGradient>
<linearGradient id="paint10_linear_5867_78" x1="128.235" y1="258.609" x2="127.989" y2="223.13" gradientUnits="userSpaceOnUse">
<stop stop-color="#FE4A23" stop-opacity="0.17"/>
<stop offset="1" stop-color="#FA43B0" stop-opacity="0.48"/>
</linearGradient>
<linearGradient id="paint11_linear_5867_78" x1="15.346" y1="2.20118" x2="15.3581" y2="33.4123" gradientUnits="userSpaceOnUse">
<stop stop-color="#2E1E65"/>
<stop offset="1" stop-color="#11082F"/>
</linearGradient>
<linearGradient id="paint12_linear_5867_78" x1="19.0728" y1="-6.65157e-07" x2="-5.54344" y2="9.39824" gradientUnits="userSpaceOnUse">
<stop stop-color="#FE4A23" stop-opacity="0.35"/>
<stop offset="1" stop-color="#FA43B0" stop-opacity="0"/>
</linearGradient>
<linearGradient id="paint13_linear_5867_78" x1="184.152" y1="155.756" x2="184.36" y2="189.648" gradientUnits="userSpaceOnUse">
<stop stop-color="#FE4A23" stop-opacity="0.42"/>
<stop offset="1" stop-color="#FA43B0" stop-opacity="0.38"/>
</linearGradient>
<linearGradient id="paint14_linear_5867_78" x1="184.152" y1="263.617" x2="184.421" y2="225.033" gradientUnits="userSpaceOnUse">
<stop stop-color="#FE4A23" stop-opacity="0.17"/>
<stop offset="1" stop-color="#FA43B0" stop-opacity="0.48"/>
</linearGradient>
</defs>
</svg>
