<svg viewBox="0 0 24 24" fill="none" xmlns="http://www.w3.org/2000/svg">
	<path d="M16 1H6C3.23858 1 1 3.23858 1 6V16C1 18.7614 3.23858 21 6 21H16C18.7614 21 21 18.7614 21 16V6C21 3.23858 18.7614 1 16 1Z" stroke="#F9F9F9" stroke-width="1.5" stroke-linecap="round" stroke-linejoin="round" class="icon-stroke" />
	<path d="M15 10.37C15.1234 11.2022 14.9813 12.0522 14.5938 12.799C14.2063 13.5458 13.5932 14.1514 12.8416 14.5297C12.0901 14.9079 11.2385 15.0396 10.4078 14.9059C9.57714 14.7723 8.80977 14.3801 8.21485 13.7852C7.61993 13.1902 7.22774 12.4229 7.09408 11.5922C6.96042 10.7615 7.09208 9.90989 7.47034 9.15837C7.8486 8.40685 8.4542 7.79374 9.201 7.40624C9.9478 7.01874 10.7978 6.87658 11.63 7C12.4789 7.12588 13.2649 7.52146 13.8717 8.1283C14.4785 8.73515 14.8741 9.52107 15 10.37Z" stroke="#F9F9F9" stroke-width="1.5" stroke-linecap="round" stroke-linejoin="round" class="icon-stroke" />
	<path d="M16.5 5.5H16.51" stroke="#F9F9F9" stroke-width="1.5" stroke-linecap="round" stroke-linejoin="round" class="icon-stroke" />
</svg>
