<svg viewBox="0 0 24 18" fill="none" xmlns="http://www.w3.org/2000/svg">
<path d="M22.54 3.42C22.4212 2.94541 22.1793 2.51057 21.8386 2.15941C21.498 1.80824 21.0707 1.55318 20.6 1.42C18.88 1 12 1 12 1C12 1 5.11999 1 3.39999 1.46C2.92924 1.59318 2.50197 1.84824 2.16134 2.19941C1.82071 2.55057 1.57878 2.98541 1.45999 3.46C1.14521 5.20556 0.991228 6.97631 0.999992 8.75C0.988771 10.537 1.14276 12.3213 1.45999 14.08C1.59095 14.5398 1.8383 14.9581 2.17814 15.2945C2.51797 15.6308 2.93881 15.8738 3.39999 16C5.11999 16.46 12 16.46 12 16.46C12 16.46 18.88 16.46 20.6 16C21.0707 15.8668 21.498 15.6118 21.8386 15.2606C22.1793 14.9094 22.4212 14.4746 22.54 14C22.8524 12.2676 23.0063 10.5103 23 8.75C23.0112 6.96295 22.8572 5.1787 22.54 3.42V3.42Z" stroke="#F9F9F9" stroke-width="1.5" stroke-linecap="round" stroke-linejoin="round"/>
<path d="M9.75 12.02L15.5 8.75001L9.75 5.48001V12.02Z" stroke="#F9F9F9" stroke-width="1.5" stroke-linecap="round" stroke-linejoin="round"/>
</svg>
