<svg width="287" height="293" viewBox="0 0 287 293" fill="none" xmlns="http://www.w3.org/2000/svg">
<path d="M83.2626 146.924C82.5698 115.14 108.146 89 139.938 89C171.756 89 197.343 115.182 196.611 146.993L194.199 251.814C193.853 266.857 183.767 279.928 169.304 284.077L157.764 287.388C146.063 290.744 133.655 290.744 121.954 287.388L110.466 284.092C95.975 279.935 85.8764 266.831 85.5478 251.759L83.2626 146.924Z" fill="url(#paint0_linear_5871_356)"/>
<path opacity="0.6" d="M139.878 180.417C139.897 129.923 197.714 97.8774 196.553 148.358L194.175 251.664C193.966 260.77 193.861 265.322 192.265 269.134C190.849 272.515 188.607 275.468 185.756 277.708C182.543 280.233 178.259 281.462 169.691 283.92L154.352 288.319C147.14 290.388 143.533 291.423 139.835 291.423L139.878 180.417Z" fill="url(#paint1_linear_5871_356)"/>
<g filter="url(#filter0_d_5871_356)">
<g filter="url(#filter1_ii_5871_356)">
<path d="M100.026 142.041C99.4653 125.543 110.069 110.73 125.867 105.943L127.255 105.522C135.547 103.01 144.398 103.01 152.69 105.522L154.007 105.922C169.841 110.72 180.457 125.579 179.864 142.113L179.176 161.298C178.418 182.426 161.07 199.162 139.928 199.162C118.758 199.162 101.397 182.382 100.678 161.224L100.026 142.041Z" fill="url(#paint2_linear_5871_356)"/>
</g>
<g opacity="0.2" filter="url(#filter2_f_5871_356)">
<path d="M116.304 181.188C115.915 177.413 118.666 174.041 122.441 173.664L137.609 172.147C139.272 171.981 140.948 171.981 142.612 172.147L157.729 173.659C161.526 174.038 164.285 177.44 163.873 181.234C163.258 186.89 158.481 191.175 152.791 191.175H127.374C121.669 191.175 116.889 186.862 116.304 181.188Z" fill="url(#paint3_linear_5871_356)"/>
</g>
</g>
<g filter="url(#filter3_dd_5871_356)">
<path d="M143.663 184.74C143.663 185.636 142.119 186.363 140.215 186.363C138.31 186.363 136.766 185.636 136.766 184.74C136.766 183.844 138.31 183.117 140.215 183.117C142.119 183.117 143.663 183.844 143.663 184.74Z" fill="url(#paint4_linear_5871_356)"/>
</g>
<g filter="url(#filter4_dd_5871_356)">
<circle cx="117.252" cy="144.907" r="9.63918" fill="url(#paint5_linear_5871_356)"/>
</g>
<ellipse cx="117.252" cy="159.091" rx="4.40648" ry="2.34094" fill="url(#paint6_linear_5871_356)"/>
<path d="M115.087 120.649C115.708 117.77 118.253 115.714 121.198 115.714C121.605 115.714 121.934 116.044 121.934 116.45V129.309C121.934 131.688 120.006 133.616 117.627 133.616C114.884 133.616 112.84 131.084 113.417 128.402L115.087 120.649Z" fill="url(#paint7_linear_5871_356)"/>
<path d="M114.709 177.971C115.222 181.137 117.957 183.464 121.164 183.464C121.589 183.464 121.934 183.119 121.934 182.695V167.515C121.934 165.068 119.95 163.084 117.502 163.084C114.772 163.084 112.691 165.529 113.128 168.225L114.709 177.971Z" fill="url(#paint8_linear_5871_356)"/>
<g filter="url(#filter5_dd_5871_356)">
<circle r="9.63918" transform="matrix(-1 0 0 1 162.143 144.907)" fill="url(#paint9_linear_5871_356)"/>
</g>
<ellipse rx="4.40648" ry="2.34094" transform="matrix(-1 0 0 1 162.143 159.091)" fill="url(#paint10_linear_5871_356)"/>
<path d="M164.307 120.649C163.687 117.77 161.142 115.714 158.196 115.714C157.79 115.714 157.461 116.044 157.461 116.45V129.309C157.461 131.688 159.389 133.616 161.767 133.616C164.511 133.616 166.555 131.084 165.977 128.402L164.307 120.649Z" fill="url(#paint11_linear_5871_356)"/>
<path d="M164.686 177.971C164.173 181.137 161.438 183.464 158.23 183.464C157.806 183.464 157.461 183.119 157.461 182.695V167.515C157.461 165.068 159.445 163.084 161.892 163.084C164.623 163.084 166.704 165.529 166.267 168.225L164.686 177.971Z" fill="url(#paint12_linear_5871_356)"/>
<defs>
<filter id="filter0_d_5871_356" x="-6.25597" y="-17.4995" width="292.404" height="308.046" filterUnits="userSpaceOnUse" color-interpolation-filters="sRGB">
<feFlood flood-opacity="0" result="BackgroundImageFix"/>
<feColorMatrix in="SourceAlpha" type="matrix" values="0 0 0 0 0 0 0 0 0 0 0 0 0 0 0 0 0 0 127 0" result="hardAlpha"/>
<feOffset dy="-14.8765"/>
<feGaussianBlur stdDeviation="53.1304"/>
<feColorMatrix type="matrix" values="0 0 0 0 1 0 0 0 0 0.820833 0 0 0 0 0.992833 0 0 0 0.37 0"/>
<feBlend mode="normal" in2="BackgroundImageFix" result="effect1_dropShadow_5871_356"/>
<feBlend mode="normal" in="SourceGraphic" in2="effect1_dropShadow_5871_356" result="shape"/>
</filter>
<filter id="filter1_ii_5871_356" x="62.8136" y="90.8866" width="117.074" height="108.276" filterUnits="userSpaceOnUse" color-interpolation-filters="sRGB">
<feFlood flood-opacity="0" result="BackgroundImageFix"/>
<feBlend mode="normal" in="SourceGraphic" in2="BackgroundImageFix" result="shape"/>
<feColorMatrix in="SourceAlpha" type="matrix" values="0 0 0 0 0 0 0 0 0 0 0 0 0 0 0 0 0 0 127 0" result="hardAlpha"/>
<feOffset dy="-9.56348"/>
<feGaussianBlur stdDeviation="9.56348"/>
<feComposite in2="hardAlpha" operator="arithmetic" k2="-1" k3="1"/>
<feColorMatrix type="matrix" values="0 0 0 0 0.379167 0 0 0 0 0.102691 0 0 0 0 0.351519 0 0 0 0.31 0"/>
<feBlend mode="normal" in2="shape" result="effect1_innerShadow_5871_356"/>
<feColorMatrix in="SourceAlpha" type="matrix" values="0 0 0 0 0 0 0 0 0 0 0 0 0 0 0 0 0 0 127 0" result="hardAlpha"/>
<feOffset dx="-37.1913" dy="-12.7513"/>
<feGaussianBlur stdDeviation="42.5043"/>
<feComposite in2="hardAlpha" operator="arithmetic" k2="-1" k3="1"/>
<feColorMatrix type="matrix" values="0 0 0 0 0.356342 0 0 0 0 0.165208 0 0 0 0 0.7625 0 0 0 0.28 0"/>
<feBlend mode="normal" in2="effect1_innerShadow_5871_356" result="effect2_innerShadow_5871_356"/>
</filter>
<filter id="filter2_f_5871_356" x="34.4978" y="90.2529" width="211.185" height="182.692" filterUnits="userSpaceOnUse" color-interpolation-filters="sRGB">
<feFlood flood-opacity="0" result="BackgroundImageFix"/>
<feBlend mode="normal" in="SourceGraphic" in2="BackgroundImageFix" result="shape"/>
<feGaussianBlur stdDeviation="40.8848" result="effect1_foregroundBlur_5871_356"/>
</filter>
<filter id="filter3_dd_5871_356" x="125.078" y="174.228" width="30.2739" height="30.1986" filterUnits="userSpaceOnUse" color-interpolation-filters="sRGB">
<feFlood flood-opacity="0" result="BackgroundImageFix"/>
<feColorMatrix in="SourceAlpha" type="matrix" values="0 0 0 0 0 0 0 0 0 0 0 0 0 0 0 0 0 0 127 0" result="hardAlpha"/>
<feOffset dy="6.37565"/>
<feGaussianBlur stdDeviation="5.84435"/>
<feColorMatrix type="matrix" values="0 0 0 0 0.599108 0 0 0 0 0.279792 0 0 0 0 0.85 0 0 0 0.35 0"/>
<feBlend mode="normal" in2="BackgroundImageFix" result="effect1_dropShadow_5871_356"/>
<feColorMatrix in="SourceAlpha" type="matrix" values="0 0 0 0 0 0 0 0 0 0 0 0 0 0 0 0 0 0 127 0" result="hardAlpha"/>
<feOffset dx="-2.12522" dy="-1.06261"/>
<feGaussianBlur stdDeviation="3.91311"/>
<feColorMatrix type="matrix" values="0 0 0 0 1 0 0 0 0 1 0 0 0 0 1 0 0 0 0.2 0"/>
<feBlend mode="normal" in2="effect1_dropShadow_5871_356" result="effect2_dropShadow_5871_356"/>
<feBlend mode="normal" in="SourceGraphic" in2="effect2_dropShadow_5871_356" result="shape"/>
</filter>
<filter id="filter4_dd_5871_356" x="100.175" y="131.018" width="34.1549" height="38.4053" filterUnits="userSpaceOnUse" color-interpolation-filters="sRGB">
<feFlood flood-opacity="0" result="BackgroundImageFix"/>
<feColorMatrix in="SourceAlpha" type="matrix" values="0 0 0 0 0 0 0 0 0 0 0 0 0 0 0 0 0 0 127 0" result="hardAlpha"/>
<feOffset dy="7.43826"/>
<feGaussianBlur stdDeviation="3.71913"/>
<feColorMatrix type="matrix" values="0 0 0 0 0.603458 0 0 0 0 0.390104 0 0 0 0 0.875 0 0 0 0.32 0"/>
<feBlend mode="normal" in2="BackgroundImageFix" result="effect1_dropShadow_5871_356"/>
<feColorMatrix in="SourceAlpha" type="matrix" values="0 0 0 0 0 0 0 0 0 0 0 0 0 0 0 0 0 0 127 0" result="hardAlpha"/>
<feOffset dx="-2.12522" dy="-2.12522"/>
<feGaussianBlur stdDeviation="1.06261"/>
<feColorMatrix type="matrix" values="0 0 0 0 1 0 0 0 0 1 0 0 0 0 1 0 0 0 0.4 0"/>
<feBlend mode="normal" in2="effect1_dropShadow_5871_356" result="effect2_dropShadow_5871_356"/>
<feBlend mode="normal" in="SourceGraphic" in2="effect2_dropShadow_5871_356" result="shape"/>
</filter>
<filter id="filter5_dd_5871_356" x="145.065" y="131.018" width="34.1549" height="38.4053" filterUnits="userSpaceOnUse" color-interpolation-filters="sRGB">
<feFlood flood-opacity="0" result="BackgroundImageFix"/>
<feColorMatrix in="SourceAlpha" type="matrix" values="0 0 0 0 0 0 0 0 0 0 0 0 0 0 0 0 0 0 127 0" result="hardAlpha"/>
<feOffset dy="7.43826"/>
<feGaussianBlur stdDeviation="3.71913"/>
<feColorMatrix type="matrix" values="0 0 0 0 0.603458 0 0 0 0 0.390104 0 0 0 0 0.875 0 0 0 0.32 0"/>
<feBlend mode="normal" in2="BackgroundImageFix" result="effect1_dropShadow_5871_356"/>
<feColorMatrix in="SourceAlpha" type="matrix" values="0 0 0 0 0 0 0 0 0 0 0 0 0 0 0 0 0 0 127 0" result="hardAlpha"/>
<feOffset dx="-2.12522" dy="-2.12522"/>
<feGaussianBlur stdDeviation="1.06261"/>
<feColorMatrix type="matrix" values="0 0 0 0 1 0 0 0 0 1 0 0 0 0 1 0 0 0 0.4 0"/>
<feBlend mode="normal" in2="effect1_dropShadow_5871_356" result="effect2_dropShadow_5871_356"/>
<feBlend mode="normal" in="SourceGraphic" in2="effect2_dropShadow_5871_356" result="shape"/>
</filter>
<linearGradient id="paint0_linear_5871_356" x1="139.973" y1="103.596" x2="140.114" y2="310.563" gradientUnits="userSpaceOnUse">
<stop stop-color="#0D0038"/>
<stop offset="1" stop-opacity="0"/>
</linearGradient>
<linearGradient id="paint1_linear_5871_356" x1="172.633" y1="130.44" x2="91.3601" y2="201.523" gradientUnits="userSpaceOnUse">
<stop stop-color="#0D0038" stop-opacity="0.64"/>
<stop offset="1" stop-color="#0D0038" stop-opacity="0"/>
</linearGradient>
<linearGradient id="paint2_linear_5871_356" x1="139.973" y1="101.669" x2="139.973" y2="199.162" gradientUnits="userSpaceOnUse">
<stop stop-color="white"/>
<stop offset="0.0698237" stop-color="#F4F0F4" stop-opacity="0.990923"/>
<stop offset="0.942282" stop-color="#C7C5FE" stop-opacity="0.77"/>
<stop offset="1" stop-color="#C4C2FF" stop-opacity="0.81"/>
</linearGradient>
<linearGradient id="paint3_linear_5871_356" x1="140.11" y1="171.897" x2="140.11" y2="191.175" gradientUnits="userSpaceOnUse">
<stop stop-color="#5B225C"/>
<stop offset="1" stop-color="#151433" stop-opacity="0.87"/>
<stop offset="1" stop-color="#59266B" stop-opacity="0.87"/>
</linearGradient>
<linearGradient id="paint4_linear_5871_356" x1="141.045" y1="181.844" x2="141.046" y2="186.794" gradientUnits="userSpaceOnUse">
<stop stop-color="#261953"/>
<stop offset="1" stop-color="#11082F"/>
</linearGradient>
<linearGradient id="paint5_linear_5871_356" x1="117.252" y1="136.651" x2="117.26" y2="156.255" gradientUnits="userSpaceOnUse">
<stop stop-color="#2E1E65"/>
<stop offset="1" stop-color="#11082F"/>
</linearGradient>
<linearGradient id="paint6_linear_5871_356" x1="124.826" y1="156.75" x2="109.364" y2="162.653" gradientUnits="userSpaceOnUse">
<stop stop-color="#FE4A23" stop-opacity="0.35"/>
<stop offset="1" stop-color="#FA43B0" stop-opacity="0"/>
</linearGradient>
<linearGradient id="paint7_linear_5871_356" x1="117.114" y1="115.714" x2="116.984" y2="137.002" gradientUnits="userSpaceOnUse">
<stop stop-color="#FE4A23" stop-opacity="0.42"/>
<stop offset="1" stop-color="#FA43B0" stop-opacity="0.38"/>
</linearGradient>
<linearGradient id="paint8_linear_5871_356" x1="117.114" y1="183.464" x2="116.945" y2="159.229" gradientUnits="userSpaceOnUse">
<stop stop-color="#FE4A23" stop-opacity="0.17"/>
<stop offset="1" stop-color="#FA43B0" stop-opacity="0.48"/>
</linearGradient>
<linearGradient id="paint9_linear_5871_356" x1="9.63918" y1="1.38262" x2="9.64679" y2="20.9871" gradientUnits="userSpaceOnUse">
<stop stop-color="#2E1E65"/>
<stop offset="1" stop-color="#11082F"/>
</linearGradient>
<linearGradient id="paint10_linear_5871_356" x1="11.9801" y1="-4.17801e-07" x2="-3.48197" y2="5.90327" gradientUnits="userSpaceOnUse">
<stop stop-color="#FE4A23" stop-opacity="0.35"/>
<stop offset="1" stop-color="#FA43B0" stop-opacity="0"/>
</linearGradient>
<linearGradient id="paint11_linear_5871_356" x1="162.281" y1="115.714" x2="162.411" y2="137.002" gradientUnits="userSpaceOnUse">
<stop stop-color="#FE4A23" stop-opacity="0.42"/>
<stop offset="1" stop-color="#FA43B0" stop-opacity="0.38"/>
</linearGradient>
<linearGradient id="paint12_linear_5871_356" x1="162.281" y1="183.464" x2="162.45" y2="159.229" gradientUnits="userSpaceOnUse">
<stop stop-color="#FE4A23" stop-opacity="0.17"/>
<stop offset="1" stop-color="#FA43B0" stop-opacity="0.48"/>
</linearGradient>
</defs>
</svg>
